<svg xmlns="http://www.w3.org/2000/svg" width="1594" height="1202" fill="none"><g filter="url(#a)"><rect width="1495.6" height="1102.76" x="52.957" y="49.283" fill="url(#b)" rx="349.816"/></g><g clip-path="url(#c)"><path fill="url(#d)" d="M1531 235h-112v760c61.86 0 112-50.144 112-112z" opacity=".75"/><path fill="url(#e)" d="M84 235h112v743c-61.856 0-112-50.144-112-112z" opacity=".75"/></g><g filter="url(#f)"><path fill="url(#g)" fill-rule="evenodd" d="M0 521.844C0 233.637 233.481 0 521.494 0h551.016C1360.52 0 1594 233.637 1594 521.844v157.537c0 288.207-233.48 521.839-521.49 521.839H521.494C233.481 1201.22 0 967.588 0 679.381zM521.494 98.461c-233.671 0-423.099 189.555-423.099 423.383v157.537c0 233.828 189.428 423.379 423.099 423.379h551.016c233.67 0 423.09-189.551 423.09-423.379V521.844c0-233.828-189.42-423.383-423.09-423.383z" clip-rule="evenodd"/></g><g filter="url(#h)" opacity=".2" style="mix-blend-mode:lighten"><rect width="1208.77" height="700.909" fill="url(#i)" rx="147.999" transform="matrix(1 0 0 -1 200.06 1035.45)"/></g><g filter="url(#j)"><rect width="255.827" height="236.307" x="451.457" y="402.749" fill="#D6FDFF" rx="35.879"/></g><g filter="url(#k)"><rect width="255.827" height="236.307" x="894.135" y="402.749" fill="#D6FDFF" rx="35.879"/></g><rect width="1397.52" height="1004.02" x="99.283" y="99.811" fill="url(#l)" opacity=".6" rx="404"/><path fill="url(#m)" d="M902.342 145.966h-357.27c-217.368 0-393.58 176.33-393.58 393.844v118.153c0 217.515 176.212 393.847 393.58 393.847h108.449z" opacity=".15"/><defs><linearGradient id="b" x1="800.759" x2="800.759" y1="49.283" y2="1152.05" gradientUnits="userSpaceOnUse"><stop stop-color="#0F2F89"/><stop offset="1" stop-color="#000A25"/></linearGradient><linearGradient id="d" x1="1531" x2="1419" y1="578.297" y2="578.297" gradientUnits="userSpaceOnUse"><stop stop-color="#44DFD8"/><stop offset="1" stop-color="#44DFD8" stop-opacity="0"/></linearGradient><linearGradient id="e" x1="84" x2="196" y1="570.618" y2="570.618" gradientUnits="userSpaceOnUse"><stop stop-color="#1F62FF"/><stop offset="1" stop-color="#1F62FF" stop-opacity="0"/></linearGradient><linearGradient id="g" x1="238.576" x2="1316.73" y1="96.709" y2="1136.48" gradientUnits="userSpaceOnUse"><stop stop-color="#85E9FF"/><stop offset="1" stop-color="#71AAFF"/></linearGradient><linearGradient id="i" x1="604.383" x2="604.383" y1="0" y2="117.653" gradientUnits="userSpaceOnUse"><stop stop-color="#fff" stop-opacity=".44"/><stop offset="1" stop-color="#fff" stop-opacity="0"/><stop offset="1" stop-color="#fff" stop-opacity="0"/></linearGradient><linearGradient id="l" x1="715.479" x2="31.167" y1="1103.83" y2="61.018" gradientUnits="userSpaceOnUse"><stop offset=".3" stop-color="#fff" stop-opacity="0"/><stop offset=".99" stop-color="#fff" stop-opacity=".8"/></linearGradient><linearGradient id="m" x1="454.519" x2="454.519" y1="49.93" y2="788.181" gradientUnits="userSpaceOnUse"><stop stop-color="#fff"/><stop offset="1" stop-color="#fff" stop-opacity="0"/></linearGradient><filter id="a" width="1495.6" height="1156.58" x="52.957" y="49.283" color-interpolation-filters="sRGB" filterUnits="userSpaceOnUse"><feFlood flood-opacity="0" result="BackgroundImageFix"/><feBlend in="SourceGraphic" in2="BackgroundImageFix" result="shape"/><feColorMatrix in="SourceAlpha" result="hardAlpha" values="0 0 0 0 0 0 0 0 0 0 0 0 0 0 0 0 0 0 127 0"/><feOffset dy="53.818"/><feGaussianBlur stdDeviation="35.879"/><feComposite in2="hardAlpha" k2="-1" k3="1" operator="arithmetic"/><feColorMatrix values="0 0 0 0 0 0 0 0 0 0 0 0 0 0 0 0 0 0 0.24 0"/><feBlend in2="shape" result="effect1_innerShadow_5580_20531"/></filter><filter id="f" width="1594" height="1201.22" x="0" y="0" color-interpolation-filters="sRGB" filterUnits="userSpaceOnUse"><feFlood flood-opacity="0" result="BackgroundImageFix"/><feBlend in="SourceGraphic" in2="BackgroundImageFix" result="shape"/><feColorMatrix in="SourceAlpha" result="hardAlpha" values="0 0 0 0 0 0 0 0 0 0 0 0 0 0 0 0 0 0 127 0"/><feOffset/><feGaussianBlur stdDeviation="6.727"/><feComposite in2="hardAlpha" k2="-1" k3="1" operator="arithmetic"/><feColorMatrix values="0 0 0 0 0 0 0 0 0 0.405333 0 0 0 0 0.633333 0 0 0 1 0"/><feBlend in2="shape" result="effect1_innerShadow_5580_20531"/></filter><filter id="h" width="1217.89" height="710.031" x="195.499" y="329.976" color-interpolation-filters="sRGB" filterUnits="userSpaceOnUse"><feFlood flood-opacity="0" result="BackgroundImageFix"/><feBlend in="SourceGraphic" in2="BackgroundImageFix" result="shape"/><feGaussianBlur result="effect1_foregroundBlur_5580_20531" stdDeviation="2.28"/></filter><filter id="j" width="435.22" height="415.7" x="361.761" y="313.053" color-interpolation-filters="sRGB" filterUnits="userSpaceOnUse"><feFlood flood-opacity="0" result="BackgroundImageFix"/><feColorMatrix in="SourceAlpha" result="hardAlpha" values="0 0 0 0 0 0 0 0 0 0 0 0 0 0 0 0 0 0 127 0"/><feOffset/><feGaussianBlur stdDeviation="44.848"/><feComposite in2="hardAlpha" operator="out"/><feColorMatrix values="0 0 0 0 1 0 0 0 0 1 0 0 0 0 1 0 0 0 0.6 0"/><feBlend in2="BackgroundImageFix" result="effect1_dropShadow_5580_20531"/><feBlend in="SourceGraphic" in2="effect1_dropShadow_5580_20531" result="shape"/><feColorMatrix in="SourceAlpha" result="hardAlpha" values="0 0 0 0 0 0 0 0 0 0 0 0 0 0 0 0 0 0 127 0"/><feMorphology in="SourceAlpha" radius="4.485" result="effect2_innerShadow_5580_20531"/><feOffset dy="4.485"/><feGaussianBlur stdDeviation="6.727"/><feComposite in2="hardAlpha" k2="-1" k3="1" operator="arithmetic"/><feColorMatrix values="0 0 0 0 0 0 0 0 0 0.403922 0 0 0 0 0.631373 0 0 0 0.58 0"/><feBlend in2="shape" result="effect2_innerShadow_5580_20531"/></filter><filter id="k" width="435.22" height="415.7" x="804.438" y="313.053" color-interpolation-filters="sRGB" filterUnits="userSpaceOnUse"><feFlood flood-opacity="0" result="BackgroundImageFix"/><feColorMatrix in="SourceAlpha" result="hardAlpha" values="0 0 0 0 0 0 0 0 0 0 0 0 0 0 0 0 0 0 127 0"/><feOffset/><feGaussianBlur stdDeviation="44.848"/><feComposite in2="hardAlpha" operator="out"/><feColorMatrix values="0 0 0 0 1 0 0 0 0 1 0 0 0 0 1 0 0 0 0.6 0"/><feBlend in2="BackgroundImageFix" result="effect1_dropShadow_5580_20531"/><feBlend in="SourceGraphic" in2="effect1_dropShadow_5580_20531" result="shape"/><feColorMatrix in="SourceAlpha" result="hardAlpha" values="0 0 0 0 0 0 0 0 0 0 0 0 0 0 0 0 0 0 127 0"/><feMorphology in="SourceAlpha" radius="4.485" result="effect2_innerShadow_5580_20531"/><feOffset dy="4.485"/><feGaussianBlur stdDeviation="6.727"/><feComposite in2="hardAlpha" k2="-1" k3="1" operator="arithmetic"/><feColorMatrix values="0 0 0 0 0 0 0 0 0 0.403922 0 0 0 0 0.631373 0 0 0 0.58 0"/><feBlend in2="shape" result="effect2_innerShadow_5580_20531"/></filter><clipPath id="c"><rect width="1426.73" height="1073.23" x="87.359" y="68.835" fill="#fff" rx="143.514"/></clipPath></defs></svg>