<svg xmlns="http://www.w3.org/2000/svg" width="1594" height="1200" fill="none"><g filter="url(#a)"><rect width="1495.6" height="1102.76" x="52.957" y="49.291" fill="url(#b)" rx="349.816"/></g><g filter="url(#c)"><path fill="url(#d)" fill-rule="evenodd" d="M0 521.311C0 233.399 233.481 0 521.494 0h551.016C1360.52 0 1594 233.399 1594 521.311v157.377C1594 966.601 1360.52 1200 1072.51 1200H521.494C233.481 1200 0 966.601 0 678.688zm521.494-422.95c-233.671 0-423.099 189.361-423.099 422.95v157.377c0 233.59 189.428 422.952 423.099 422.952h551.016c233.67 0 423.09-189.362 423.09-422.952V521.311c0-233.589-189.42-422.95-423.09-422.95z" clip-rule="evenodd"/></g><g filter="url(#e)"><rect width="1562" height="1168" x="16" y="16" fill="url(#f)" rx="520"/></g><path fill="url(#g)" d="M966 70H548.23C294.052 70 88 276.338 88 530.87v138.26C88 923.662 294.052 1130 548.23 1130h126.813z" opacity=".15"/><defs><linearGradient id="b" x1="800.759" x2="800.759" y1="49.291" y2="1152.05" gradientUnits="userSpaceOnUse"><stop stop-color="#0F2F89"/><stop offset="1" stop-color="#000A25"/></linearGradient><linearGradient id="d" x1="238.576" x2="1315.67" y1="96.61" y2="1136.42" gradientUnits="userSpaceOnUse"><stop stop-color="#85E9FF"/><stop offset="1" stop-color="#71AAFF"/></linearGradient><linearGradient id="f" x1="797" x2="797" y1="16" y2="1184" gradientUnits="userSpaceOnUse"><stop stop-color="#0F2F89"/><stop offset="1" stop-color="#000A25"/></linearGradient><linearGradient id="g" x1="442.342" x2="442.342" y1="-42.38" y2="821.509" gradientUnits="userSpaceOnUse"><stop stop-color="#fff"/><stop offset="1" stop-color="#fff" stop-opacity="0"/></linearGradient><filter id="a" width="1495.6" height="1156.58" x="52.957" y="49.291" color-interpolation-filters="sRGB" filterUnits="userSpaceOnUse"><feFlood flood-opacity="0" result="BackgroundImageFix"/><feBlend in="SourceGraphic" in2="BackgroundImageFix" result="shape"/><feColorMatrix in="SourceAlpha" result="hardAlpha" values="0 0 0 0 0 0 0 0 0 0 0 0 0 0 0 0 0 0 127 0"/><feOffset dy="53.818"/><feGaussianBlur stdDeviation="35.879"/><feComposite in2="hardAlpha" k2="-1" k3="1" operator="arithmetic"/><feColorMatrix values="0 0 0 0 0 0 0 0 0 0 0 0 0 0 0 0 0 0 0.24 0"/><feBlend in2="shape" result="effect1_innerShadow_5503_50101"/></filter><filter id="c" width="1594" height="1200" x="0" y="0" color-interpolation-filters="sRGB" filterUnits="userSpaceOnUse"><feFlood flood-opacity="0" result="BackgroundImageFix"/><feBlend in="SourceGraphic" in2="BackgroundImageFix" result="shape"/><feColorMatrix in="SourceAlpha" result="hardAlpha" values="0 0 0 0 0 0 0 0 0 0 0 0 0 0 0 0 0 0 127 0"/><feOffset/><feGaussianBlur stdDeviation="6.727"/><feComposite in2="hardAlpha" k2="-1" k3="1" operator="arithmetic"/><feColorMatrix values="0 0 0 0 0 0 0 0 0 0.405333 0 0 0 0 0.633333 0 0 0 1 0"/><feBlend in2="shape" result="effect1_innerShadow_5503_50101"/></filter><filter id="e" width="1562" height="1221.82" x="16" y="16" color-interpolation-filters="sRGB" filterUnits="userSpaceOnUse"><feFlood flood-opacity="0" result="BackgroundImageFix"/><feBlend in="SourceGraphic" in2="BackgroundImageFix" result="shape"/><feColorMatrix in="SourceAlpha" result="hardAlpha" values="0 0 0 0 0 0 0 0 0 0 0 0 0 0 0 0 0 0 127 0"/><feOffset dy="53.818"/><feGaussianBlur stdDeviation="35.879"/><feComposite in2="hardAlpha" k2="-1" k3="1" operator="arithmetic"/><feColorMatrix values="0 0 0 0 0 0 0 0 0 0 0 0 0 0 0 0 0 0 0.24 0"/><feBlend in2="shape" result="effect1_innerShadow_5503_50101"/></filter></defs></svg>